<svg xmlns="http://www.w3.org/2000/svg" xmlns:xlink="http://www.w3.org/1999/xlink" width="500" zoomAndPan="magnify" viewBox="0 0 375 374.999991" height="500" preserveAspectRatio="xMidYMid meet" version="1.0"><defs><g/><clipPath id="cdf3ea1e28"><path d="M 181.785156 154.03125 L 221.101562 154.03125 L 221.101562 164.289062 L 181.785156 164.289062 Z M 181.785156 154.03125 " clip-rule="nonzero"/></clipPath><clipPath id="49b28bdf59"><path d="M 0.785156 0.03125 L 40.101562 0.03125 L 40.101562 10.289062 L 0.785156 10.289062 Z M 0.785156 0.03125 " clip-rule="nonzero"/></clipPath><clipPath id="47724e31d1"><rect x="0" width="41" y="0" height="11"/></clipPath><clipPath id="c7a25524f0"><path d="M 103.097656 183.175781 L 128.597656 183.175781 L 128.597656 202 L 103.097656 202 Z M 103.097656 183.175781 " clip-rule="nonzero"/></clipPath><clipPath id="fe6e84db4a"><path d="M 111 194 L 127 194 L 127 203.425781 L 111 203.425781 Z M 111 194 " clip-rule="nonzero"/></clipPath></defs><g fill="#ffd51e" fill-opacity="1"><g transform="translate(42.952049, 211.061384)"><g><path d="M 54.15625 -31.046875 L 54.15625 -19.015625 C 52.71875 -12.429688 49.578125 -7.445312 44.734375 -4.0625 C 39.898438 -0.675781 34.507812 1.015625 28.5625 1.015625 C 21.070312 1.015625 14.695312 -1.785156 9.4375 -7.390625 C 4.175781 -12.992188 1.546875 -19.757812 1.546875 -27.6875 C 1.546875 -35.75 4.117188 -42.554688 9.265625 -48.109375 C 14.421875 -53.660156 20.851562 -56.4375 28.5625 -56.4375 C 37.5625 -56.4375 44.679688 -53.28125 49.921875 -46.96875 L 41.65625 -37.890625 C 38.695312 -42.640625 34.578125 -45.015625 29.296875 -45.015625 C 25.398438 -45.015625 22.070312 -43.320312 19.3125 -39.9375 C 16.5625 -36.5625 15.1875 -32.476562 15.1875 -27.6875 C 15.1875 -22.976562 16.5625 -18.953125 19.3125 -15.609375 C 22.070312 -12.273438 25.398438 -10.609375 29.296875 -10.609375 C 32.515625 -10.609375 35.320312 -11.582031 37.71875 -13.53125 C 40.125 -15.488281 41.328125 -18.078125 41.328125 -21.296875 L 28.5625 -21.296875 L 28.5625 -31.046875 Z M 54.15625 -31.046875 "/></g></g></g><g fill="#ffd51e" fill-opacity="1"><g transform="translate(92.667035, 211.061384)"><g><path d="M 7.28125 -4.09375 C 3.457031 -7.5 1.546875 -11.867188 1.546875 -17.203125 C 1.546875 -22.535156 3.535156 -26.910156 7.515625 -30.328125 C 11.503906 -33.753906 16.4375 -35.46875 22.3125 -35.46875 C 28.082031 -35.46875 32.945312 -33.742188 36.90625 -30.296875 C 40.875 -26.847656 42.859375 -22.476562 42.859375 -17.1875 C 42.859375 -11.90625 40.921875 -7.550781 37.046875 -4.125 C 33.179688 -0.695312 28.269531 1.015625 22.3125 1.015625 C 16.125 1.015625 11.113281 -0.6875 7.28125 -4.09375 Z M 16.484375 -23.046875 C 14.941406 -21.523438 14.171875 -19.578125 14.171875 -17.203125 C 14.171875 -14.828125 14.910156 -12.890625 16.390625 -11.390625 C 17.867188 -9.890625 19.816406 -9.140625 22.234375 -9.140625 C 24.566406 -9.140625 26.484375 -9.898438 27.984375 -11.421875 C 29.484375 -12.941406 30.234375 -14.867188 30.234375 -17.203125 C 30.234375 -19.578125 29.457031 -21.523438 27.90625 -23.046875 C 26.363281 -24.566406 24.472656 -25.328125 22.234375 -25.328125 C 19.953125 -25.328125 18.035156 -24.566406 16.484375 -23.046875 Z M 16.484375 -23.046875 "/></g></g></g><g fill="#ffd51e" fill-opacity="1"><g transform="translate(131.095171, 211.061384)"><g><path d="M 6.375 -4.265625 C 3.15625 -7.785156 1.546875 -12.097656 1.546875 -17.203125 C 1.546875 -22.304688 3.15625 -26.625 6.375 -30.15625 C 9.601562 -33.695312 13.703125 -35.46875 18.671875 -35.46875 C 23.242188 -35.46875 27.007812 -34.035156 29.96875 -31.171875 L 29.96875 -34.46875 L 41.859375 -34.46875 L 41.859375 0 L 30.09375 0 L 30.09375 -3.890625 L 29.96875 -3.890625 C 27.007812 -0.617188 23.242188 1.015625 18.671875 1.015625 C 13.703125 1.015625 9.601562 -0.742188 6.375 -4.265625 Z M 16.484375 -23.046875 C 14.941406 -21.523438 14.171875 -19.578125 14.171875 -17.203125 C 14.171875 -14.828125 14.910156 -12.890625 16.390625 -11.390625 C 17.867188 -9.890625 19.816406 -9.140625 22.234375 -9.140625 C 24.566406 -9.140625 26.484375 -9.898438 27.984375 -11.421875 C 29.484375 -12.941406 30.234375 -14.867188 30.234375 -17.203125 C 30.234375 -19.578125 29.457031 -21.523438 27.90625 -23.046875 C 26.363281 -24.566406 24.472656 -25.328125 22.234375 -25.328125 C 19.953125 -25.328125 18.035156 -24.566406 16.484375 -23.046875 Z M 16.484375 -23.046875 "/></g></g></g><g fill="#ffd51e" fill-opacity="1"><g transform="translate(171.001358, 211.061384)"><g><path d="M 4.03125 0 L 4.03125 -57.78125 L 15.921875 -57.78125 L 15.921875 0 Z M 4.03125 0 "/></g></g></g><g fill="#ffd51e" fill-opacity="1"><g transform="translate(184.974661, 211.061384)"><g><path d="M 36.078125 -55.4375 L 36.078125 -44.34375 L 16.65625 -44.34375 L 16.65625 -33.328125 L 34.609375 -33.328125 L 34.609375 -22.234375 L 16.65625 -22.234375 L 16.65625 0 L 4.03125 0 L 4.03125 -55.4375 Z M 36.078125 -55.4375 "/></g></g></g><g fill="#ffd51e" fill-opacity="1"><g transform="translate(217.087547, 211.061384)"><g><path d="M 38.90625 -15.59375 L 13.90625 -15.59375 C 13.90625 -13.164062 14.6875 -11.367188 16.25 -10.203125 C 17.820312 -9.046875 19.523438 -8.46875 21.359375 -8.46875 C 23.285156 -8.46875 24.804688 -8.722656 25.921875 -9.234375 C 27.046875 -9.753906 28.328125 -10.773438 29.765625 -12.296875 L 38.359375 -8 C 34.773438 -1.988281 28.820312 1.015625 20.5 1.015625 C 15.300781 1.015625 10.84375 -0.765625 7.125 -4.328125 C 3.40625 -7.890625 1.546875 -12.175781 1.546875 -17.1875 C 1.546875 -22.207031 3.40625 -26.507812 7.125 -30.09375 C 10.84375 -33.675781 15.300781 -35.46875 20.5 -35.46875 C 25.957031 -35.46875 30.398438 -33.890625 33.828125 -30.734375 C 37.253906 -27.578125 38.96875 -23.066406 38.96875 -17.203125 C 38.96875 -16.390625 38.945312 -15.851562 38.90625 -15.59375 Z M 14.25 -22.171875 L 27.34375 -22.171875 C 27.070312 -23.960938 26.363281 -25.335938 25.21875 -26.296875 C 24.082031 -27.265625 22.617188 -27.75 20.828125 -27.75 C 18.859375 -27.75 17.289062 -27.234375 16.125 -26.203125 C 14.957031 -25.171875 14.332031 -23.828125 14.25 -22.171875 Z M 14.25 -22.171875 "/></g></g></g><g fill="#ffd51e" fill-opacity="1"><g transform="translate(251.619028, 211.061384)"><g><path d="M 38.90625 -15.59375 L 13.90625 -15.59375 C 13.90625 -13.164062 14.6875 -11.367188 16.25 -10.203125 C 17.820312 -9.046875 19.523438 -8.46875 21.359375 -8.46875 C 23.285156 -8.46875 24.804688 -8.722656 25.921875 -9.234375 C 27.046875 -9.753906 28.328125 -10.773438 29.765625 -12.296875 L 38.359375 -8 C 34.773438 -1.988281 28.820312 1.015625 20.5 1.015625 C 15.300781 1.015625 10.84375 -0.765625 7.125 -4.328125 C 3.40625 -7.890625 1.546875 -12.175781 1.546875 -17.1875 C 1.546875 -22.207031 3.40625 -26.507812 7.125 -30.09375 C 10.84375 -33.675781 15.300781 -35.46875 20.5 -35.46875 C 25.957031 -35.46875 30.398438 -33.890625 33.828125 -30.734375 C 37.253906 -27.578125 38.96875 -23.066406 38.96875 -17.203125 C 38.96875 -16.390625 38.945312 -15.851562 38.90625 -15.59375 Z M 14.25 -22.171875 L 27.34375 -22.171875 C 27.070312 -23.960938 26.363281 -25.335938 25.21875 -26.296875 C 24.082031 -27.265625 22.617188 -27.75 20.828125 -27.75 C 18.859375 -27.75 17.289062 -27.234375 16.125 -26.203125 C 14.957031 -25.171875 14.332031 -23.828125 14.25 -22.171875 Z M 14.25 -22.171875 "/></g></g></g><g fill="#ffd51e" fill-opacity="1"><g transform="translate(286.15052, 211.061384)"><g><path d="M 6.375 -4.265625 C 3.15625 -7.785156 1.546875 -12.097656 1.546875 -17.203125 C 1.546875 -22.304688 3.15625 -26.625 6.375 -30.15625 C 9.601562 -33.695312 13.703125 -35.46875 18.671875 -35.46875 C 23.242188 -35.46875 27.007812 -34.035156 29.96875 -31.171875 L 29.96875 -57.78125 L 41.859375 -57.78125 L 41.859375 0 L 30.09375 0 L 30.09375 -3.890625 L 29.96875 -3.890625 C 27.007812 -0.617188 23.242188 1.015625 18.671875 1.015625 C 13.703125 1.015625 9.601562 -0.742188 6.375 -4.265625 Z M 16.484375 -23.046875 C 14.941406 -21.523438 14.171875 -19.578125 14.171875 -17.203125 C 14.171875 -14.828125 14.910156 -12.890625 16.390625 -11.390625 C 17.867188 -9.890625 19.816406 -9.140625 22.234375 -9.140625 C 24.566406 -9.140625 26.484375 -9.898438 27.984375 -11.421875 C 29.484375 -12.941406 30.234375 -14.867188 30.234375 -17.203125 C 30.234375 -19.578125 29.457031 -21.523438 27.90625 -23.046875 C 26.363281 -24.566406 24.472656 -25.328125 22.234375 -25.328125 C 19.953125 -25.328125 18.035156 -24.566406 16.484375 -23.046875 Z M 16.484375 -23.046875 "/></g></g></g><g clip-path="url(#cdf3ea1e28)"><g transform="matrix(1, 0, 0, 1, 181, 154)"><g clip-path="url(#47724e31d1)"><g clip-path="url(#49b28bdf59)"><path fill="#ffd51e" d="M 0.785156 0.03125 L 40.101562 0.03125 L 40.101562 10.289062 L 0.785156 10.289062 Z M 0.785156 0.03125 " fill-opacity="1" fill-rule="nonzero"/></g></g></g></g><g clip-path="url(#c7a25524f0)"><path fill="#000000" d="M 121.714844 184.996094 C 120.050781 183.851562 118.019531 183.175781 115.820312 183.175781 C 110.113281 183.175781 105.480469 187.714844 105.480469 193.300781 C 105.480469 193.582031 105.5 193.863281 105.519531 194.144531 C 103.699219 196.453125 103.164062 198.515625 104.003906 199.976562 C 104.675781 201.121094 106.148438 201.738281 108.199219 201.738281 C 108.695312 201.738281 109.234375 201.703125 109.808594 201.628906 C 112.527344 201.269531 115.722656 200.128906 118.804688 198.382812 C 120.757812 197.277344 122.480469 196.039062 123.878906 194.785156 C 124.570312 194.164062 125.164062 193.566406 125.679688 192.964844 C 125.757812 192.871094 125.832031 192.777344 125.910156 192.703125 C 127.804688 190.394531 128.53125 188.183594 127.613281 186.644531 C 126.769531 185.164062 124.683594 184.601562 121.714844 184.996094 Z M 105 199.414062 C 104.503906 198.550781 104.789062 197.257812 105.785156 195.738281 C 106.265625 197.613281 107.28125 199.300781 108.65625 200.597656 C 106.820312 200.691406 105.519531 200.277344 105 199.414062 Z M 125.851562 190.882812 C 125.375 188.988281 124.359375 187.320312 122.980469 186.007812 C 124.816406 185.914062 126.140625 186.328125 126.636719 187.191406 C 127.136719 188.035156 126.847656 189.363281 125.851562 190.882812 Z M 125.851562 190.882812 " fill-opacity="1" fill-rule="nonzero"/></g><g clip-path="url(#fe6e84db4a)"><path fill="#000000" d="M 119.609375 199.171875 C 116.738281 200.800781 113.75 201.910156 111.148438 202.339844 C 112.5625 203.035156 114.152344 203.425781 115.820312 203.425781 C 121.21875 203.425781 125.660156 199.359375 126.121094 194.183594 C 124.53125 195.910156 122.289062 197.652344 119.609375 199.171875 Z M 119.609375 199.171875 " fill-opacity="1" fill-rule="nonzero"/></g></svg>